<svg width="145" height="15" viewBox="0 0 145 15" fill="none" xmlns="http://www.w3.org/2000/svg">
<path d="M15.6358 10.4059L18.2129 7.92509C19.357 6.82921 19.5978 6.0946 19.5978 5.27569C19.5978 3.83057 18.4658 2.92736 16.7076 2.92736C15.3949 2.92736 14.275 3.39703 13.6247 4.20389L14.4436 4.91441C14.9614 4.28819 15.696 3.99917 16.5992 3.99917C17.7794 3.99917 18.3936 4.52905 18.3936 5.39612C18.3936 5.926 18.225 6.45588 17.3338 7.32296L13.9016 10.6347V11.4536H19.9591V10.4059H15.6358ZM23.9969 11.55C25.9599 11.55 27.4291 9.9844 27.4291 7.23866C27.4291 4.49292 25.9599 2.92736 23.9969 2.92736C22.0219 2.92736 20.5527 4.49292 20.5527 7.23866C20.5527 9.9844 22.0219 11.55 23.9969 11.55ZM23.9969 10.4782C22.6722 10.4782 21.757 9.39431 21.757 7.23866C21.757 5.08301 22.6722 3.99917 23.9969 3.99917C25.3096 3.99917 26.2248 5.08301 26.2248 7.23866C26.2248 9.39431 25.3096 10.4782 23.9969 10.4782ZM29.7902 10.4059L32.3674 7.92509C33.5114 6.82921 33.7523 6.0946 33.7523 5.27569C33.7523 3.83057 32.6203 2.92736 30.862 2.92736C29.5494 2.92736 28.4294 3.39703 27.7791 4.20389L28.598 4.91441C29.1158 4.28819 29.8504 3.99917 30.7536 3.99917C31.9338 3.99917 32.548 4.52905 32.548 5.39612C32.548 5.926 32.3794 6.45588 31.4882 7.32296L28.0561 10.6347V11.4536H34.1136V10.4059H29.7902ZM36.3441 10.4059L38.9212 7.92509C40.0653 6.82921 40.3062 6.0946 40.3062 5.27569C40.3062 3.83057 39.1741 2.92736 37.4159 2.92736C36.1032 2.92736 34.9833 3.39703 34.333 4.20389L35.1519 4.91441C35.6697 4.28819 36.4043 3.99917 37.3075 3.99917C38.4877 3.99917 39.1019 4.52905 39.1019 5.39612C39.1019 5.926 38.9333 6.45588 38.0421 7.32296L34.6099 10.6347V11.4536H40.6674V10.4059H36.3441ZM44.1504 3.39703C44.4876 3.39703 44.8007 3.51746 45.0416 3.6981L45.3908 2.81898C45.0657 2.56608 44.584 2.44565 44.0902 2.44565C42.7294 2.44565 41.9827 3.26456 41.9827 4.50496V5.07097H40.8989V6.02234H41.9827V11.4536H43.1388V6.02234H44.9693V5.07097H43.1147V4.517C43.1147 3.7824 43.464 3.39703 44.1504 3.39703ZM48.338 11.5259C50.2528 11.5259 51.6497 10.165 51.6497 8.26229C51.6497 6.35954 50.2528 5.01075 48.338 5.01075C46.4232 5.01075 45.0142 6.35954 45.0142 8.26229C45.0142 10.165 46.4232 11.5259 48.338 11.5259ZM48.338 10.5143C47.1096 10.5143 46.1824 9.62312 46.1824 8.26229C46.1824 6.90146 47.1096 6.02234 48.338 6.02234C49.5664 6.02234 50.4816 6.90146 50.4816 8.26229C50.4816 9.62312 49.5664 10.5143 48.338 10.5143ZM55.621 11.5259C57.5358 11.5259 58.9328 10.165 58.9328 8.26229C58.9328 6.35954 57.5358 5.01075 55.621 5.01075C53.7062 5.01075 52.2972 6.35954 52.2972 8.26229C52.2972 10.165 53.7062 11.5259 55.621 11.5259ZM55.621 10.5143C54.3927 10.5143 53.4654 9.62312 53.4654 8.26229C53.4654 6.90146 54.3927 6.02234 55.621 6.02234C56.8494 6.02234 57.7646 6.90146 57.7646 8.26229C57.7646 9.62312 56.8494 10.5143 55.621 10.5143ZM65.0356 2.51791V6.03439C64.5057 5.34795 63.7109 5.01075 62.8077 5.01075C60.9411 5.01075 59.5803 6.31137 59.5803 8.26229C59.5803 10.2132 60.9411 11.5259 62.8077 11.5259C63.747 11.5259 64.5659 11.1646 65.0838 10.442V11.4536H66.1917V2.51791H65.0356ZM62.904 10.5143C61.6757 10.5143 60.7484 9.62312 60.7484 8.26229C60.7484 6.90146 61.6757 6.02234 62.904 6.02234C64.1204 6.02234 65.0477 6.90146 65.0477 8.26229C65.0477 9.62312 64.1204 10.5143 62.904 10.5143ZM68.5959 3.84261C69.0536 3.84261 69.3787 3.50541 69.3787 3.07188C69.3787 2.66242 69.0415 2.33727 68.5959 2.33727C68.1504 2.33727 67.8132 2.67447 67.8132 3.09596C67.8132 3.51746 68.1504 3.84261 68.5959 3.84261ZM68.0179 11.4536H69.174V5.07097H68.0179V11.4536ZM74.4282 5.01075C73.4166 5.01075 72.5977 5.38408 72.128 6.03439V5.07097H71.0201V11.4536H72.1762V8.16595C72.1762 6.78104 72.971 6.04643 74.1994 6.04643C75.2953 6.04643 75.9215 6.66061 75.9215 7.91305V11.4536H77.0776V7.78058C77.0776 5.90192 75.9817 5.01075 74.4282 5.01075ZM83.9009 5.07097V6.05847C83.359 5.35999 82.4919 5.01075 81.5405 5.01075C79.698 5.01075 78.3011 6.25116 78.3011 8.09369C78.3011 9.93623 79.698 11.1887 81.5405 11.1887C82.4558 11.1887 83.2867 10.8635 83.8407 10.2012V10.707C83.8407 12.1521 83.1543 12.8506 81.6489 12.8506C80.7096 12.8506 79.7823 12.5254 79.1922 12.0196L78.6382 12.9108C79.3367 13.537 80.5169 13.8622 81.6851 13.8622C83.8527 13.8622 84.9968 12.8385 84.9968 10.5865V5.07097H83.9009ZM81.673 10.1771C80.3844 10.1771 79.4692 9.32205 79.4692 8.09369C79.4692 6.85329 80.3844 6.02234 81.673 6.02234C82.9495 6.02234 83.8648 6.85329 83.8648 8.09369C83.8648 9.32205 82.9495 10.1771 81.673 10.1771ZM90.072 10.2493C89.8311 10.442 89.506 10.5504 89.1688 10.5504C88.5305 10.5504 88.1692 10.165 88.1692 9.47861V6.02234H89.9997V5.07097H88.1692V3.67401H87.0131V5.07097H85.9293V6.02234H87.0131V9.52678C87.0131 10.8153 87.7477 11.5259 89.0363 11.5259C89.5541 11.5259 90.084 11.3814 90.4332 11.0803L90.072 10.2493ZM92.5776 6.14277V5.07097H91.4697V11.4536H92.6258V8.27433C92.6258 6.87738 93.3965 6.11869 94.6369 6.11869C94.7212 6.11869 94.8055 6.11869 94.9019 6.13073V5.01075C93.7819 5.01075 92.9871 5.39612 92.5776 6.14277ZM98.278 5.01075C97.2543 5.01075 96.303 5.29978 95.6406 5.82966L96.1223 6.69674C96.6161 6.27524 97.3868 6.0103 98.1455 6.0103C99.2895 6.0103 99.8556 6.57631 99.8556 7.55177V7.78058H98.0251C96.1223 7.78058 95.46 8.62357 95.46 9.6472C95.46 10.7551 96.3752 11.5259 97.8203 11.5259C98.8199 11.5259 99.5304 11.1887 99.9158 10.6106V11.4536H101.012V7.59994C101.012 5.85375 100.024 5.01075 98.278 5.01075ZM98.013 10.6347C97.1339 10.6347 96.604 10.2373 96.604 9.59903C96.604 9.05711 96.9292 8.61153 98.0732 8.61153H99.8556V9.50269C99.5665 10.2373 98.8801 10.6347 98.013 10.6347ZM107.69 2.51791V6.03439C107.161 5.34795 106.366 5.01075 105.462 5.01075C103.596 5.01075 102.235 6.31137 102.235 8.26229C102.235 10.2132 103.596 11.5259 105.462 11.5259C106.402 11.5259 107.221 11.1646 107.739 10.442V11.4536H108.846V2.51791H107.69ZM105.559 10.5143C104.33 10.5143 103.403 9.62312 103.403 8.26229C103.403 6.90146 104.33 6.02234 105.559 6.02234C106.775 6.02234 107.702 6.90146 107.702 8.26229C107.702 9.62312 106.775 10.5143 105.559 10.5143ZM111.251 3.84261C111.708 3.84261 112.033 3.50541 112.033 3.07188C112.033 2.66242 111.696 2.33727 111.251 2.33727C110.805 2.33727 110.468 2.67447 110.468 3.09596C110.468 3.51746 110.805 3.84261 111.251 3.84261ZM110.673 11.4536H111.829V5.07097H110.673V11.4536ZM117.083 5.01075C116.071 5.01075 115.252 5.38408 114.783 6.03439V5.07097H113.675V11.4536H114.831V8.16595C114.831 6.78104 115.626 6.04643 116.854 6.04643C117.95 6.04643 118.576 6.66061 118.576 7.91305V11.4536H119.732V7.78058C119.732 5.90192 118.636 5.01075 117.083 5.01075ZM126.556 5.07097V6.05847C126.014 5.35999 125.147 5.01075 124.195 5.01075C122.353 5.01075 120.956 6.25116 120.956 8.09369C120.956 9.93623 122.353 11.1887 124.195 11.1887C125.111 11.1887 125.942 10.8635 126.495 10.2012V10.707C126.495 12.1521 125.809 12.8506 124.304 12.8506C123.364 12.8506 122.437 12.5254 121.847 12.0196L121.293 12.9108C121.991 13.537 123.172 13.8622 124.34 13.8622C126.508 13.8622 127.652 12.8385 127.652 10.5865V5.07097H126.556ZM124.328 10.1771C123.039 10.1771 122.124 9.32205 122.124 8.09369C122.124 6.85329 123.039 6.02234 124.328 6.02234C125.604 6.02234 126.52 6.85329 126.52 8.09369C126.52 9.32205 125.604 10.1771 124.328 10.1771ZM129.499 11.4536H130.655V2.51791H129.499V11.4536ZM135.882 10.2493C135.641 10.442 135.316 10.5504 134.979 10.5504C134.34 10.5504 133.979 10.165 133.979 9.47861V6.02234H135.81V5.07097H133.979V3.67401H132.823V5.07097H131.739V6.02234H132.823V9.52678C132.823 10.8153 133.558 11.5259 134.846 11.5259C135.364 11.5259 135.894 11.3814 136.243 11.0803L135.882 10.2493ZM141.933 2.51791V6.03439C141.403 5.34795 140.608 5.01075 139.705 5.01075C137.839 5.01075 136.478 6.31137 136.478 8.26229C136.478 10.2132 137.839 11.5259 139.705 11.5259C140.645 11.5259 141.463 11.1646 141.981 10.442V11.4536H143.089V2.51791H141.933ZM139.802 10.5143C138.573 10.5143 137.646 9.62312 137.646 8.26229C137.646 6.90146 138.573 6.02234 139.802 6.02234C141.018 6.02234 141.945 6.90146 141.945 8.26229C141.945 9.62312 141.018 10.5143 139.802 10.5143Z" fill="#191819"/>
<g clip-path="url(#clip0_1_212)">
<path d="M6.53574 12.6962C9.47547 12.6962 11.8586 10.3131 11.8586 7.37339C11.8586 4.43366 9.47547 2.05054 6.53574 2.05054C3.59601 2.05054 1.21289 4.43366 1.21289 7.37339C1.21289 10.3131 3.59601 12.6962 6.53574 12.6962Z" stroke="#191819" stroke-width="1.06457" stroke-linecap="round" stroke-linejoin="round"/>
<path d="M8.66465 5.67452C8.42565 5.18748 7.7084 4.33555 6.27389 4.45718C4.83938 4.57907 3.76336 5.9183 3.88313 7.62241C4.00289 9.32679 5.31764 10.3006 6.51288 10.3006C7.94739 10.3006 8.66465 9.13198 8.66465 9.13198" stroke="#191819" stroke-width="1.06457" stroke-linecap="round" stroke-linejoin="round"/>
</g>
<defs>
<clipPath id="clip0_1_212">
<rect width="12.7748" height="12.7748" fill="white" transform="translate(0.148438 0.985352)"/>
</clipPath>
</defs>
</svg>
